<?xml version="1.0" ?><svg baseProfile="tiny" id="Layer_1" overflow="scroll" version="1.1" viewBox="0 0 24 24" xml:space="preserve" xmlns="http://www.w3.org/2000/svg" xmlns:xlink="http://www.w3.org/1999/xlink"><path d="M1.7744141,20v2.75c0,0.4140625,0.3359375,0.75,0.75,0.75h18.9511719c0.4140625,0,0.75-0.3359375,0.75-0.75  V20c0-0.4140625-0.3359375-0.75-0.75-0.75s-0.75,0.3359375-0.75,0.75v2H3.2744141v-2c0-0.4140625-0.3359375-0.75-0.75-0.75  S1.7744141,19.5859375,1.7744141,20z" fill="#1D1D1D"/><path d="M22.25,5c0-0.1972656-0.078125-0.387207-0.2167969-0.5273438l-3.7094727-3.75  C18.1826172,0.5800781,17.9907227,0.5,17.7905273,0.5H2.5244141c-0.4140625,0-0.75,0.3359375-0.75,0.75V7.5  c0,0.4140625,0.3359375,0.75,0.75,0.75s0.75-0.3359375,0.75-0.75V2H16.25v4c0,0.4140625,0.3359375,0.75,0.75,0.75h3.75V7.5  c0,0.4140625,0.3359375,0.75,0.75,0.75s0.75-0.3359375,0.75-0.75V5z M17.75,2.2754517L20.6925049,5.25H17.75V2.2754517z" fill="#1D1D1D"/><path d="M6.5454102,11.25c0.4140625,0,0.75-0.3359375,0.75-0.75s-0.3359375-0.75-0.75-0.75H2.9091797  c-0.4140625,0-0.75,0.3359375-0.75,0.75V17c0,0.4140625,0.3359375,0.75,0.75,0.75h3.6362305c0.4140625,0,0.75-0.3359375,0.75-0.75  s-0.3359375-0.75-0.75-0.75H3.6591797v-5H6.5454102z" fill="#1D1D1D"/><path d="M10.1816406,16.25c-0.4140625,0-0.75,0.3359375-0.75,0.75s0.3359375,0.75,0.75,0.75h3.6367188  c0.4140625,0,0.75-0.3359375,0.75-0.75v-3.1367188c0-0.4140625-0.3359375-0.75-0.75-0.75h-2.8867188V11.25h2.8867188  c0.4140625,0,0.75-0.3359375,0.75-0.75s-0.3359375-0.75-0.75-0.75h-3.6367188c-0.4140625,0-0.75,0.3359375-0.75,0.75v3.3632813  c0,0.4140625,0.3359375,0.75,0.75,0.75h2.8867188V16.25H10.1816406z" fill="#1D1D1D"/><path d="M17.4545898,16.25c-0.4140625,0-0.75,0.3359375-0.75,0.75s0.3359375,0.75,0.75,0.75h3.6362305  c0.4140625,0,0.75-0.3359375,0.75-0.75v-3.1367188c0-0.4140625-0.3359375-0.75-0.75-0.75h-2.8862305V11.25h2.8862305  c0.4140625,0,0.75-0.3359375,0.75-0.75s-0.3359375-0.75-0.75-0.75h-3.6362305c-0.4140625,0-0.75,0.3359375-0.75,0.75v3.3632813  c0,0.4140625,0.3359375,0.75,0.75,0.75h2.8862305V16.25H17.4545898z" fill="#1D1D1D"/></svg>