<svg xmlns="http://www.w3.org/2000/svg" xml:space="preserve" id="data" x="0" y="0" enable-background="new 0 0 64 64" version="1.1" viewBox="0 0 64 64">
  <path fill="#34495c" d="M32,18.9c-13.86,0-27.9-3.25-27.9-9.46c0-6.21,14.03-9.46,27.9-9.46c13.86,0,27.9,3.25,27.9,9.46
		C59.9,15.66,45.86,18.9,32,18.9z M32,2.86c-15.28,0-25.03,3.9-25.03,6.59s9.75,6.59,25.03,6.59c15.28,0,25.03-3.9,25.03-6.59
		S47.28,2.86,32,2.86z"></path>
  <path fill="#f6b64e" d="M32,27.75c-9.05,0-18.09-2.1-27.07-6.31c-0.72-0.34-1.03-1.19-0.69-1.91c0.34-0.72,1.19-1.03,1.91-0.69
		c17.16,8.03,34.56,8.03,51.72,0c0.72-0.34,1.57-0.03,1.91,0.69c0.34,0.72,0.03,1.57-0.69,1.91C50.09,25.65,41.05,27.75,32,27.75z"></path>
  <path fill="#f6b64e" d="M32 36.62c-9.05 0-18.09-2.1-27.07-6.31-.72-.34-1.03-1.19-.69-1.91.34-.72 1.19-1.03 1.91-.69 17.16 8.03 34.56 8.03 51.72 0 .72-.34 1.57-.03 1.91.69.34.72.03 1.57-.69 1.91C50.09 34.52 41.05 36.62 32 36.62zM32 46.22c-9.05 0-18.09-2.1-27.07-6.31-.72-.34-1.03-1.19-.69-1.91.34-.72 1.19-1.03 1.91-.69 17.16 8.03 34.56 8.03 51.72 0 .72-.34 1.57-.03 1.91.69.34.72.03 1.57-.69 1.91C50.09 44.12 41.05 46.22 32 46.22zM32 55.83c-9.05 0-18.09-2.1-27.07-6.31-.72-.34-1.03-1.19-.69-1.91.34-.72 1.19-1.03 1.91-.69 17.16 8.03 34.56 8.03 51.72 0 .72-.34 1.57-.03 1.91.69.34.72.03 1.57-.69 1.91C50.09 53.73 41.05 55.83 32 55.83z"></path>
  <path fill="#34495c" d="M32,63.99c-8.37,0-16.73-1.77-25.04-5.32c-1.74-0.74-2.86-2.43-2.86-4.31V9.45c0-0.79,0.64-1.43,1.43-1.43
		c0.79,0,1.43,0.64,1.43,1.43v44.91c0,0.73,0.44,1.38,1.12,1.67c15.87,6.78,31.96,6.78,47.83,0c0.68-0.29,1.12-0.95,1.12-1.67V9.45
		c0-0.79,0.64-1.43,1.43-1.43c0.79,0,1.43,0.64,1.43,1.43v44.91c0,1.88-1.12,3.57-2.86,4.31C48.73,62.22,40.37,63.99,32,63.99z"></path>
</svg>
